#N canvas 515 276 656 615 10;
#X obj 35 429 dline 2000;
#X obj 20 13 impulse1;
#X obj 279 379 lfo _____;
#X obj 109 475 *~;
#X obj 42 232 catch~ \$0-fb;
#X obj 99 6 bng 15 250 50 0 empty empty empty 17 7 0 10 -262144 -1
-1;
#X obj 128 581 throw~ \$0-fb;
#X obj 231 263 sig~ 5000;
#X obj 145 314 maskgen 100000;
#X obj 437 270 sig~ 0;
#X floatatom 276 201 5 0 0 0 - - -;
#X obj 34 577 dac~;
#X obj 325 260 sig~ 24;
#X obj 90 388 samphold~;
#X obj 79 318 *~ -1;
#X obj 377 312 sig~ 1000;
#X floatatom 363 212 5 0 0 0 - - -;
#X obj 498 312 sig~ 0.5;
#X floatatom 503 270 5 0 0 0 - - -;
#X obj 113 502 *~;
#X obj 316 480 sig~ 0.5;
#X obj 123 535 fexpr~ $x[0] * ( $x[0] > $x2[0] );
#X floatatom 330 440 5 0 0 0 - - -;
#X obj 314 312 sig~ 1;
#X obj 176 457 sig~ 0.99;
#X connect 0 0 3 0;
#X connect 0 0 11 0;
#X connect 0 0 11 1;
#X connect 1 0 0 0;
#X connect 1 0 8 0;
#X connect 1 0 14 0;
#X connect 1 0 2 1;
#X connect 2 0 13 0;
#X connect 3 0 19 0;
#X connect 4 0 0 0;
#X connect 4 0 14 0;
#X connect 5 0 1 0;
#X connect 7 0 8 1;
#X connect 8 0 3 1;
#X connect 9 0 2 4;
#X connect 10 0 7 0;
#X connect 12 0 2 0;
#X connect 13 0 0 1;
#X connect 14 0 13 1;
#X connect 15 0 2 3;
#X connect 16 0 12 0;
#X connect 17 0 2 5;
#X connect 18 0 17 0;
#X connect 19 0 21 0;
#X connect 20 0 21 1;
#X connect 21 0 6 0;
#X connect 22 0 20 0;
#X connect 23 0 2 2;
#X connect 24 0 19 1;
