#N canvas 412 162 776 737 10;
#X obj 31 344 dline 2000;
#X obj 20 13 impulse1;
#X obj 279 379 lfo _____;
#X obj 314 312 sig~ 1;
#X obj 136 409 *~;
#X obj 50 320 catch~ \$0-fb;
#X obj 126 608 osc~;
#X obj 389 510 lfo _____;
#X obj 479 442 sig~ 2000;
#X obj 548 442 sig~ 0;
#X obj 99 544 samphold~;
#X obj 96 491 *~ -1;
#X obj 136 691 dac~;
#X obj 97 5 bng 15 250 50 0 empty empty empty 17 7 0 10 -262144 -1
-1;
#X obj 553 556 snapshot~;
#X floatatom 572 593 5 0 0 0 - - -;
#X obj 591 486 metro 100;
#X obj 638 409 loadbang;
#X msg 635 434 1;
#X obj 137 443 throw~ \$0-fb;
#X obj 135 652 *~;
#X obj 215 544 lop~ 10;
#X obj 307 672 lfo _____;
#X obj 260 584 *~ -1;
#X obj 466 604 sig~ 3;
#X obj 532 365 lfo _____;
#X obj 622 297 sig~ 2000;
#X obj 691 297 sig~ 0;
#X obj 407 558 samphold~;
#X obj 231 263 sig~ 5000;
#X obj 145 314 maskgen 100000;
#X obj 424 443 sig~ 1;
#X obj 567 299 sig~ 1;
#X obj 362 312 sig~ 500;
#X obj 437 270 sig~ 0;
#X obj 323 261 sig~ 20.54;
#X obj 388 403 sig~ 0.12;
#X obj 533 258 sig~ 0.456;
#X floatatom 276 201 5 0 0 0 - - -;
#X connect 0 0 4 0;
#X connect 0 0 11 0;
#X connect 1 0 0 0;
#X connect 1 0 2 1;
#X connect 1 0 7 1;
#X connect 1 0 25 1;
#X connect 1 0 30 0;
#X connect 1 0 22 1;
#X connect 2 0 0 1;
#X connect 3 0 2 2;
#X connect 4 0 19 0;
#X connect 5 0 0 0;
#X connect 6 0 20 0;
#X connect 7 0 10 0;
#X connect 8 0 7 3;
#X connect 9 0 7 4;
#X connect 10 0 23 0;
#X connect 10 0 22 3;
#X connect 11 0 10 1;
#X connect 11 0 28 1;
#X connect 13 0 1 0;
#X connect 14 0 15 0;
#X connect 16 0 14 0;
#X connect 17 0 18 0;
#X connect 18 0 16 0;
#X connect 20 0 12 0;
#X connect 20 0 12 1;
#X connect 21 0 20 1;
#X connect 22 0 6 0;
#X connect 23 0 22 2;
#X connect 24 0 22 4;
#X connect 25 0 28 0;
#X connect 26 0 25 3;
#X connect 27 0 25 4;
#X connect 28 0 22 0;
#X connect 29 0 30 1;
#X connect 30 0 4 1;
#X connect 30 0 14 0;
#X connect 30 0 21 0;
#X connect 31 0 7 2;
#X connect 32 0 25 2;
#X connect 33 0 2 3;
#X connect 34 0 2 4;
#X connect 35 0 2 0;
#X connect 36 0 7 0;
#X connect 37 0 25 0;
#X connect 38 0 29 0;
