#N canvas 396 445 603 504 10;
#X obj 46 225 impulsen;
#X obj 45 155 samphold~;
#X obj 146 114 impulsen;
#X obj 146 133 *~ -1;
#X obj 185 458 dac~;
#X obj 44 125 lfo ______;
#X obj 145 75 sig~ 1.5;
#X obj 45 11 sig~ 1;
#X obj 294 138 lfo ______;
#X obj 295 24 sig~ 0.25;
#X obj 338 88 sig~ 2;
#X obj 296 162 zerox;
#X obj 222 66 bng 15 250 50 0 empty empty empty 17 7 0 10 -262144 -1
-1;
#X obj 220 88 impulse1;
#X obj 315 46 sig~ 2;
#X obj 330 68 sig~ 4;
#X obj 183 331 lfo ______;
#X obj 184 217 sig~ 0.25;
#X obj 227 281 sig~ 0;
#X obj 183 362 samphold~;
#X obj 123 267 *~ -1;
#X obj 185 423 osc~;
#X obj 204 240 sig~ 36;
#X obj 219 261 sig~ 72;
#X obj 183 383 mtof~;
#X obj 66 33 sig~ 1;
#X obj 88 75 sig~ 1;
#X connect 0 0 20 0;
#X connect 1 0 0 0;
#X connect 2 0 3 0;
#X connect 3 0 1 1;
#X connect 5 0 1 0;
#X connect 6 0 2 0;
#X connect 7 0 5 0;
#X connect 8 0 11 0;
#X connect 8 0 5 3;
#X connect 9 0 8 0;
#X connect 10 0 8 4;
#X connect 11 0 2 1;
#X connect 11 0 5 1;
#X connect 12 0 13 0;
#X connect 13 0 8 1;
#X connect 13 0 16 1;
#X connect 14 0 8 2;
#X connect 15 0 8 3;
#X connect 16 0 19 0;
#X connect 17 0 16 0;
#X connect 18 0 16 4;
#X connect 19 0 24 0;
#X connect 20 0 19 1;
#X connect 21 0 4 1;
#X connect 21 0 4 0;
#X connect 22 0 16 2;
#X connect 23 0 16 3;
#X connect 24 0 21 0;
#X connect 25 0 5 2;
#X connect 26 0 5 4;
