#N canvas 571 562 450 300 10;
#X obj 246 171 snapshot~;
#X floatatom 265 208 5 0 0 0 - - -;
#X obj 284 101 metro 100;
#X obj 18 39 impulse1;
#X obj 16 -2 bng 15 250 50 0 empty empty empty 17 7 0 10 -262144 -1
-1;
#X obj 331 24 loadbang;
#X msg 328 49 1;
#X obj 18 66 fexpr~ $x1[0] + $y1[-1];
#X connect 0 0 1 0;
#X connect 2 0 0 0;
#X connect 3 0 7 0;
#X connect 4 0 3 0;
#X connect 5 0 6 0;
#X connect 6 0 2 0;
#X connect 7 0 0 0;
