#N canvas 705 562 450 300 10;
#X obj 60 146 fexpr~ ( $x1[0] - $x1[-1] ) < 0;
#X obj 58 32 inlet~;
#X obj 40 205 outlet~;
#X obj 62 77 phasor2;
#X obj 124 31 inlet~;
#X connect 0 0 2 0;
#X connect 1 0 3 0;
#X connect 3 0 0 0;
#X connect 4 0 3 1;
