#N canvas 146 180 1107 729 10;
#X obj 251 259 impulsen;
#X obj 439 362 samphold~;
#X obj 438 307 lfo __________;
#X obj 437 388 throw~ \$0-fb;
#X obj 237 216 catch~ \$0-fb;
#X obj 434 256 sig~ 5;
#X floatatom 467 186 5 0 0 0 - - -;
#X obj 551 490 samplerate~;
#X obj 452 521 *~, f 2;
#X obj 560 460 loadbang;
#X obj 412 557 *~;
#X obj 412 603 +~;
#X obj 829 147 soundfiler;
#X obj 406 633 tabread4~ mytab;
#X msg 866 69 read -resize /tmp/duke.wav mytab, f 20;
#X obj 873 24 loadbang;
#X obj 749 66 table mytab;
#X obj 288 383 sig~ 1000;
#X obj 636 468 bng 15 250 50 0 empty empty empty 17 7 0 10 -262144
-1 -1;
#X obj 404 681 dac~;
#X obj 603 391 samphold~;
#X obj 633 342 lfo __________;
#X obj 629 291 sig~ 5;
#X obj 703 284 sig~ 1;
#X obj 777 284 sig~ 10;
#X floatatom 648 233 5 0 0 0 - - -;
#X floatatom 805 243 5 0 0 0 - - -;
#X obj 90 287 samphold~;
#X obj 79 213 lfo __________;
#X obj 68 162 sig~ 5;
#X floatatom 102 95 5 0 0 0 - - -;
#X floatatom 244 114 5 0 0 0 - - -;
#X obj 142 156 sig~ 0.1;
#X obj 216 155 sig~ 2;
#X floatatom 188 88 5 0 0 0 - - -;
#X floatatom 760 209 5 0 0 0 - - -;
#X obj 307 157 impulsen;
#X obj 378 125 impulse1;
#X obj 385 85 bng 15 250 50 0 empty empty empty 17 7 0 10 -262144 -1
-1;
#X obj 496 218 sig~ 1;
#X obj 520 251 sig~ 20;
#X obj 304 92 sig~ 0.25;
#X floatatom 553 215 5 0 0 0 - - -;
#X floatatom 877 272 5 0 0 0 - - -;
#X obj 850 314 sig~ 0.25;
#X obj 598 425 snapshot~;
#X obj 671 403 bang~;
#X obj 470 575 *, f 7;
#X floatatom 306 327 5 0 0 0 - - -;
#X obj 138 351 *~;
#X obj 341 512 lop~ 20;
#X floatatom 318 42 5 0 0 0 - - -;
#X obj 356 414 /~ 1000;
#X obj 252 445 ramp1 100000;
#X connect 0 0 1 1;
#X connect 0 0 20 1;
#X connect 0 0 27 1;
#X connect 0 0 53 0;
#X connect 1 0 3 0;
#X connect 2 0 1 0;
#X connect 4 0 0 0;
#X connect 5 0 2 0;
#X connect 6 0 5 0;
#X connect 7 0 8 1;
#X connect 7 0 47 1;
#X connect 8 0 10 1;
#X connect 9 0 7 0;
#X connect 10 0 11 0;
#X connect 11 0 13 0;
#X connect 13 0 19 0;
#X connect 13 0 19 1;
#X connect 14 0 12 0;
#X connect 15 0 14 0;
#X connect 17 0 52 0;
#X connect 17 0 53 1;
#X connect 18 0 7 0;
#X connect 20 0 45 0;
#X connect 21 0 20 0;
#X connect 22 0 21 0;
#X connect 23 0 21 2;
#X connect 24 0 21 3;
#X connect 25 0 22 0;
#X connect 26 0 24 0;
#X connect 27 0 49 0;
#X connect 28 0 27 0;
#X connect 29 0 28 0;
#X connect 30 0 29 0;
#X connect 31 0 33 0;
#X connect 32 0 28 2;
#X connect 33 0 28 3;
#X connect 34 0 32 0;
#X connect 35 0 23 0;
#X connect 36 0 0 1;
#X connect 36 0 2 1;
#X connect 36 0 21 1;
#X connect 36 0 1 1;
#X connect 36 0 20 1;
#X connect 36 0 27 1;
#X connect 36 0 28 1;
#X connect 37 0 36 1;
#X connect 38 0 37 0;
#X connect 39 0 2 2;
#X connect 40 0 2 3;
#X connect 41 0 36 0;
#X connect 42 0 40 0;
#X connect 43 0 44 0;
#X connect 44 0 21 5;
#X connect 45 0 47 0;
#X connect 46 0 45 0;
#X connect 47 0 13 1;
#X connect 48 0 17 0;
#X connect 49 0 8 0;
#X connect 50 0 10 0;
#X connect 51 0 41 0;
#X connect 52 0 49 1;
#X connect 53 0 50 0;
