#N canvas 851 333 469 451 10;
#X obj 64 165 sig~;
#X obj 80 211 rzero_rev~ 0;
#X obj 52 89 t b b;
#X msg 50 143 0;
#X msg 89 139 1;
#X obj 62 259 -~;
#X obj 66 294 clip~ 0 1;
#X obj 64 324 outlet~;
#X obj 49 51 inlet;
#X obj 43 116 delay 10 1 msec;
#X connect 0 0 5 0;
#X connect 0 0 1 0;
#X connect 1 0 5 1;
#X connect 2 0 9 0;
#X connect 2 1 4 0;
#X connect 3 0 0 0;
#X connect 4 0 0 0;
#X connect 5 0 6 0;
#X connect 6 0 7 0;
#X connect 8 0 2 0;
#X connect 9 0 3 0;
