#N canvas 357 326 801 598 10;
#X obj 30 79 phasor2;
#X obj 26 41 inlet~;
#X obj 85 41 inlet~;
#X text 31 11 freq;
#X text 88 13 phase reset (send pulse);
#X obj 29 223 cos~;
#X obj 31 510 outlet~;
#X obj 29 244 +~ 1;
#X obj 30 266 *~ 0.5;
#X obj 32 436 *~;
#X obj 339 507 -~;
#X obj 364 367 inlet~;
#X text 374 342 minimum;
#X text 467 339 maximum;
#X obj 464 374 inlet~;
#X obj 30 475 +~;
#X obj 30 104 -~ 0.5;
#X obj 60 352 fexpr~ ($x[0] >= 0 ) && ( $x[0] < 1 );
#X obj 33 380 *~;
#X obj 606 216 inlet~;
#X text 632 194 wavetype;
#X obj 108 291 *~;
#X obj 136 263 fexpr~ ($x[0] >= 1 ) && ( $x[0] < 2 );
#X obj 191 149 fexpr~ ($x[0] > 0 );
#X obj 199 218 *~;
#X obj 226 191 fexpr~ ($x[0] >= 2 ) && ( $x[0] < 3 );
#X text 137 112 sine sawtooth square triangle;
#X obj 352 114 tri;
#X obj 350 159 *~;
#X obj 378 132 fexpr~ ($x[0] >= 3 ) && ( $x[0] < 4 );
#X text 707 195 phase offset;
#X obj 30 174 +~;
#X obj 706 227 inlet~;
#X connect 0 0 16 0;
#X connect 0 0 21 0;
#X connect 0 0 27 0;
#X connect 1 0 0 0;
#X connect 2 0 0 1;
#X connect 5 0 7 0;
#X connect 7 0 8 0;
#X connect 8 0 18 0;
#X connect 9 0 15 0;
#X connect 10 0 9 1;
#X connect 11 0 10 1;
#X connect 11 0 15 1;
#X connect 14 0 10 0;
#X connect 15 0 6 0;
#X connect 16 0 23 0;
#X connect 16 0 31 0;
#X connect 17 0 18 1;
#X connect 18 0 9 0;
#X connect 19 0 17 0;
#X connect 19 0 22 0;
#X connect 19 0 25 0;
#X connect 19 0 29 0;
#X connect 21 0 9 0;
#X connect 22 0 21 1;
#X connect 23 0 24 0;
#X connect 24 0 9 0;
#X connect 25 0 24 1;
#X connect 27 0 28 0;
#X connect 28 0 9 0;
#X connect 29 0 28 1;
#X connect 31 0 5 0;
#X connect 32 0 31 1;
