#N canvas 623 493 450 300 10;
#X obj 30 118 lfo _______________;
#X floatatom 27 15 5 0 0 0 - - -;
#X floatatom 84 19 5 0 0 0 - - -;
#X floatatom 129 19 5 0 0 0 - - -;
#X floatatom 183 15 5 0 0 0 - - -;
#X obj 246 171 snapshot~;
#X floatatom 265 208 5 0 0 0 - - -;
#X obj 284 101 metro 100;
#X obj 331 24 loadbang;
#X msg 328 49 1;
#X obj 211 49 impulse1;
#X obj 260 25 bng 15 250 50 0 empty empty empty 17 7 0 10 -262144 -1
-1;
#X connect 0 0 5 0;
#X connect 1 0 0 0;
#X connect 2 0 0 2;
#X connect 3 0 0 3;
#X connect 4 0 0 4;
#X connect 5 0 6 0;
#X connect 7 0 5 0;
#X connect 8 0 9 0;
#X connect 9 0 7 0;
#X connect 10 0 0 1;
#X connect 11 0 10 0;
