#N canvas 498 459 450 300 10;
#X obj 20 24 inlet~;
#X text 288 24 stretch an impulse, f 22;
#X text 64 7 impulse in;
#X obj 21 135 fexpr~ $x1[0] + $y1[-1];
#X obj 93 66 dline \$1;
#X text 153 67 max pulse length;
#X obj 93 92 *~ -1;
#X obj 176 28 inlet~;
#X obj 20 213 outlet~;
#X obj 18 176 clip~ 0 1;
#X connect 0 0 3 0;
#X connect 0 0 4 0;
#X connect 3 0 9 0;
#X connect 4 0 6 0;
#X connect 6 0 3 0;
#X connect 7 0 4 1;
#X connect 9 0 8 0;
