#N canvas 121 498 450 300 10;
#X obj 96 78 impulse1;
#X obj 87 212 dac~;
#X obj 99 35 bng 15 250 50 0 empty empty empty 17 7 0 10 -262144 -1
-1;
#X obj 219 171 snapshot~;
#X obj 274 130 metro 1;
#X obj 290 105 tgl 15 0 empty empty empty 17 7 0 10 -262144 -1 -1 1
1;
#X floatatom 228 206 5 0 0 0 - - -;
#X obj 327 47 loadbang;
#X msg 299 79 1;
#X obj 188 88 sig~ 1000;
#X obj 94 133 maskgen 10000;
#X connect 0 0 10 0;
#X connect 2 0 0 0;
#X connect 3 0 6 0;
#X connect 4 0 3 0;
#X connect 5 0 4 0;
#X connect 7 0 8 0;
#X connect 8 0 5 0;
#X connect 9 0 10 1;
#X connect 10 0 1 0;
#X connect 10 0 1 1;
#X connect 10 0 3 0;
