#N canvas 588 368 450 300 10;
#X obj 36 145 phasor2;
#X obj 57 212 snapshot~;
#X floatatom 76 249 15 0 0 0 - - -;
#X obj 289 173 metro 100;
#X obj 336 96 loadbang;
#X msg 333 121 1;
#X obj 99 97 impulse1;
#X obj 103 59 bng 15 250 50 0 empty empty empty 17 7 0 10 -262144 -1
-1;
#X obj 34 99 sig~ 0.1;
#X connect 0 0 1 0;
#X connect 1 0 2 0;
#X connect 3 0 1 0;
#X connect 4 0 5 0;
#X connect 5 0 3 0;
#X connect 6 0 0 1;
#X connect 7 0 6 0;
#X connect 8 0 0 0;
