#N canvas 135 585 450 300 10;
#X obj 93 124 maskgen \$1;
#X text 182 127 argument is maximum ramp period;
#X text 109 11 a single shot ramp from 0 to 1 with specified period
;
#X obj 185 223 phasor2;
#X obj 201 192 /~;
#X obj 212 164 sig~ 1;
#X obj 151 246 *~, f 8;
#X obj 99 69 inlet~;
#X text 63 40 impulse;
#X obj 212 36 inlet~;
#X obj 109 275 outlet~;
#X obj 210 102 *~ 0.001;
#X text 273 33 period in ms;
#X obj 212 64 clip~ 0.001 1e+06;
#X connect 0 0 6 0;
#X connect 3 0 6 1;
#X connect 4 0 3 0;
#X connect 5 0 4 0;
#X connect 6 0 10 0;
#X connect 7 0 0 0;
#X connect 7 0 3 1;
#X connect 9 0 0 1;
#X connect 9 0 13 0;
#X connect 11 0 4 1;
#X connect 13 0 11 0;
