#N canvas 652 532 450 300 10;
#X obj 85 197 snapshot~;
#X floatatom 104 234 5 0 0 0 - - -;
#X obj 364 81 loadbang;
#X obj 27 40 impulse1;
#X obj 40 9 bng 15 250 50 0 empty empty empty 17 7 0 10 -262144 -1
-1;
#X obj 28 98 ramp1 10000;
#X obj 317 158 metro 10;
#X obj 321 131 tgl 15 0 empty empty empty 17 7 0 10 -262144 -1 -1 1
1;
#X msg 349 110 1;
#X obj 109 61 sig~ 200;
#X connect 0 0 1 0;
#X connect 2 0 8 0;
#X connect 3 0 5 0;
#X connect 4 0 3 0;
#X connect 5 0 0 0;
#X connect 6 0 0 0;
#X connect 7 0 6 0;
#X connect 8 0 7 0;
#X connect 9 0 5 1;
