#N canvas 466 567 450 300 10;
#X obj 36 106 fexpr~ round($x[0]);
#X obj 35 135 clip~ 1 128;
#X text 29 27 number of "elements" or notes in sequence;
#X obj 36 60 inlet~;
#X obj 190 62 inlet~;
#X obj 190 103 clip~ 0.001 1e+06;
#X obj 36 181 *~;
#X obj 191 129 *~ 0.001;
#X obj 192 204 /~;
#X text 252 47 element length ms;
#X obj 172 168 sig~ 1;
#X obj 34 252 /~;
#X obj 14 216 sig~ 1;
#X obj 41 277 outlet~;
#X text 95 277 frequency of whole sequence;
#X text 190 239 frequency of each element;
#X obj 142 241 outlet~;
#X connect 0 0 1 0;
#X connect 1 0 6 0;
#X connect 3 0 0 0;
#X connect 4 0 5 0;
#X connect 5 0 7 0;
#X connect 6 0 11 1;
#X connect 7 0 6 1;
#X connect 7 0 8 1;
#X connect 8 0 16 0;
#X connect 10 0 8 0;
#X connect 11 0 13 0;
#X connect 12 0 11 0;
