#N canvas 546 562 473 374 10;
#X obj 55 124 seqsync;
#X obj 50 167 phasor2;
#X obj 49 210 samphold~;
#X obj 154 187 lfo _______;
#X obj 177 112 sig~ 48;
#X obj 114 163 *~;
#X floatatom 148 8 5 0 0 0 - - -;
#X obj 148 31 t b f;
#X obj 149 149 impulse1;
#X obj 211 131 sig~ 72;
#X obj 286 162 sig~ 0;
#X obj 78 79 sig~ 150;
#X obj 19 73 sig~ 4;
#X obj 51 338 dac~;
#X obj 46 266 osc~;
#X obj 46 239 mtof~;
#X floatatom 20 8 5 0 0 0 - - -;
#X obj 32 30 t b f;
#X floatatom 331 104 5 0 0 0 - - -;
#X obj 331 127 t b f;
#X obj 278 130 sig~ 0;
#X connect 0 0 5 0;
#X connect 0 1 1 0;
#X connect 1 0 2 1;
#X connect 2 0 15 0;
#X connect 3 0 2 0;
#X connect 4 0 3 2;
#X connect 5 0 3 0;
#X connect 6 0 7 0;
#X connect 7 0 8 0;
#X connect 7 1 5 1;
#X connect 8 0 3 1;
#X connect 9 0 3 3;
#X connect 10 0 3 5;
#X connect 11 0 0 1;
#X connect 12 0 0 0;
#X connect 14 0 13 0;
#X connect 14 0 13 1;
#X connect 15 0 14 0;
#X connect 16 0 17 0;
#X connect 17 0 8 0;
#X connect 17 1 12 0;
#X connect 18 0 19 0;
#X connect 19 0 8 0;
#X connect 19 1 10 0;
#X connect 20 0 3 4;
