#N canvas 324 671 450 300 10;
#X obj 89 227 osc~;
#X obj 92 284 dac~, f 10;
#X obj 90 206 mtof~;
#X obj 92 143 lfo ______;
#X obj 113 79 sig~ 48;
#X obj 125 100 sig~ 60;
#X obj 91 176 samphold~;
#X obj 187 152 phasor2;
#X obj 314 81 impulse1;
#X obj 309 51 bng 15 250 50 0 empty empty empty 17 7 0 10 -262144 -1
-1;
#X obj 188 128 sig~ 0.75;
#X floatatom 243 75 5 0 0 0 - - -;
#X obj 179 66 sig~ 0.25;
#X floatatom 207 2 5 0 0 0 - - -;
#X obj 30 63 sig~ 1;
#X obj 204 25 t b f;
#X obj 92 56 sig~ 2;
#X connect 0 0 1 0;
#X connect 0 0 1 1;
#X connect 2 0 0 0;
#X connect 3 0 6 0;
#X connect 4 0 3 2;
#X connect 5 0 3 3;
#X connect 6 0 2 0;
#X connect 7 0 6 1;
#X connect 8 0 7 1;
#X connect 8 0 3 1;
#X connect 9 0 8 0;
#X connect 10 0 7 0;
#X connect 11 0 10 0;
#X connect 12 0 3 5;
#X connect 13 0 15 0;
#X connect 14 0 3 4;
#X connect 15 0 9 0;
#X connect 15 1 12 0;
#X connect 16 0 3 0;
