#N canvas 192 325 885 658 10;
#X obj 62 207 seqsync;
#X obj 57 250 phasor2;
#X obj 51 296 samphold~;
#X obj 161 270 lfo _______;
#X obj 121 246 *~;
#X floatatom 148 8 5 0 0 0 - - -;
#X obj 148 31 t b f;
#X obj 156 232 impulse1;
#X obj 218 214 sig~ 72;
#X obj 293 245 sig~ 0;
#X obj 26 156 sig~ 4;
#X obj 49 593 dac~;
#X obj 53 483 osc~;
#X obj 50 361 mtof~;
#X floatatom 20 8 5 0 0 0 - - -;
#X obj 32 30 t b f;
#X floatatom 338 187 5 0 0 0 - - -;
#X obj 338 210 t b f;
#X obj 285 213 sig~ 0;
#X obj 51 543 *~ 0.25;
#X floatatom 104 39 5 0 0 0 - - -;
#X msg 103 150 \$1 100;
#X obj 51 323 fexpr~ round($x[0]);
#X obj 51 391 lop~ 200;
#X obj 191 394 dline 10000;
#X floatatom 280 281 5 0 0 0 - - -;
#X msg 270 308 \$1 100;
#X obj 219 366 *~;
#X obj 272 340 line~ 2;
#X obj 105 182 line~ 250;
#X obj 191 505 osc~;
#X obj 193 418 +~;
#X floatatom 358 280 5 0 0 0 - - -;
#X msg 348 307 \$1 100;
#X obj 350 339 line~ -12;
#X obj 216 449 mtof~;
#X obj 217 479 lop~ 200;
#X obj 184 195 sig~ 60;
#X obj 263 179 lfo _______;
#X obj 205 82 *~;
#X obj 187 125 sig~ 1000;
#X obj 208 149 /~;
#X obj 361 142 sig~ 2;
#X obj 229 42 sig~ 1, f 8;
#X floatatom 325 16 5 0 0 0 - - -;
#X obj 325 39 t b f;
#X obj 178 529 *~;
#X floatatom 516 308 5 0 0 0 - - -;
#X msg 515 419 \$1 100;
#X obj 517 451 line~ 0;
#X obj 289 103 sig~ 125;
#X obj 358 101 sig~ 375;
#X connect 0 0 4 0;
#X connect 0 1 1 0;
#X connect 1 0 2 1;
#X connect 2 0 22 0;
#X connect 3 0 2 0;
#X connect 4 0 3 0;
#X connect 5 0 6 0;
#X connect 6 0 7 0;
#X connect 6 1 4 1;
#X connect 7 0 3 1;
#X connect 7 0 38 1;
#X connect 8 0 3 3;
#X connect 9 0 3 5;
#X connect 10 0 0 0;
#X connect 12 0 19 0;
#X connect 13 0 23 0;
#X connect 14 0 15 0;
#X connect 15 0 7 0;
#X connect 15 1 10 0;
#X connect 16 0 17 0;
#X connect 17 0 7 0;
#X connect 17 1 9 0;
#X connect 18 0 3 4;
#X connect 19 0 11 0;
#X connect 19 0 11 1;
#X connect 20 0 21 0;
#X connect 21 0 29 0;
#X connect 22 0 13 0;
#X connect 22 0 24 0;
#X connect 23 0 12 0;
#X connect 24 0 31 0;
#X connect 25 0 26 0;
#X connect 26 0 28 0;
#X connect 27 0 24 1;
#X connect 28 0 27 1;
#X connect 29 0 39 0;
#X connect 30 0 46 0;
#X connect 31 0 35 0;
#X connect 32 0 33 0;
#X connect 33 0 34 0;
#X connect 34 0 31 1;
#X connect 35 0 36 0;
#X connect 36 0 30 0;
#X connect 37 0 3 2;
#X connect 38 0 27 0;
#X connect 38 0 0 1;
#X connect 39 0 41 1;
#X connect 40 0 41 0;
#X connect 41 0 38 0;
#X connect 42 0 38 4;
#X connect 43 0 39 1;
#X connect 44 0 45 0;
#X connect 45 0 7 0;
#X connect 45 1 43 0;
#X connect 46 0 19 0;
#X connect 47 0 48 0;
#X connect 48 0 49 0;
#X connect 49 0 46 1;
#X connect 50 0 38 2;
#X connect 51 0 38 3;
