#N canvas 196 388 747 520 10;
#X obj 55 124 seqsync;
#X obj 50 167 phasor2;
#X obj 44 213 samphold~;
#X obj 154 187 lfo _______;
#X obj 177 112 sig~ 48;
#X obj 114 163 *~;
#X floatatom 148 8 5 0 0 0 - - -;
#X obj 148 31 t b f;
#X obj 149 149 impulse1;
#X obj 211 131 sig~ 72;
#X obj 286 162 sig~ 0;
#X obj 19 73 sig~ 4;
#X obj 92 440 dac~;
#X obj 71 296 osc~;
#X obj 68 255 mtof~;
#X floatatom 20 8 5 0 0 0 - - -;
#X obj 32 30 t b f;
#X floatatom 331 104 5 0 0 0 - - -;
#X obj 331 127 t b f;
#X obj 278 130 sig~ 0;
#X obj 95 332 dline 10000;
#X obj 94 390 *~ 0.25;
#X floatatom 104 39 5 0 0 0 - - -;
#X msg 96 67 \$1 100;
#X obj 66 232 fexpr~ round($x[0]);
#X obj 67 276 lop~ 200;
#X obj 184 331 dline 10000;
#X floatatom 273 198 5 0 0 0 - - -;
#X msg 263 225 \$1 100;
#X obj 212 283 *~;
#X obj 265 257 line~ 2;
#X obj 98 99 line~ 250;
#X connect 0 0 5 0;
#X connect 0 1 1 0;
#X connect 1 0 2 1;
#X connect 2 0 24 0;
#X connect 3 0 2 0;
#X connect 4 0 3 2;
#X connect 5 0 3 0;
#X connect 6 0 7 0;
#X connect 7 0 8 0;
#X connect 7 1 5 1;
#X connect 8 0 3 1;
#X connect 9 0 3 3;
#X connect 10 0 3 5;
#X connect 11 0 0 0;
#X connect 13 0 20 0;
#X connect 13 0 26 0;
#X connect 14 0 25 0;
#X connect 15 0 16 0;
#X connect 16 0 8 0;
#X connect 16 1 11 0;
#X connect 17 0 18 0;
#X connect 18 0 8 0;
#X connect 18 1 10 0;
#X connect 19 0 3 4;
#X connect 20 0 21 0;
#X connect 21 0 12 0;
#X connect 21 0 12 1;
#X connect 22 0 23 0;
#X connect 23 0 31 0;
#X connect 24 0 14 0;
#X connect 25 0 13 0;
#X connect 26 0 21 0;
#X connect 27 0 28 0;
#X connect 28 0 30 0;
#X connect 29 0 26 1;
#X connect 30 0 29 1;
#X connect 31 0 0 1;
#X connect 31 0 29 0;
